<?xml version="1.0" encoding="UTF-8"?>
<svg version="1.1" xmlns="http://www.w3.org/2000/svg" width="2000" height="2000">
<path d="M0 0 C10.89 0 21.78 0 33 0 C35.8153125 5.2284375 35.8153125 5.2284375 38.6875 10.5625 C44.22870664 20.81583654 49.90662229 30.98409272 55.6640625 41.1171875 C59.84282819 48.47290891 63.96583603 55.85971218 68.09008789 63.24609375 C70.58950741 67.7172815 73.09398436 72.18390094 75.66015625 76.6171875 C76.04196045 77.27710693 76.42376465 77.93702637 76.81713867 78.61694336 C77.78784378 80.28750601 78.7647146 81.95448201 79.7421875 83.62109375 C81 86 81 86 81 88 C81.66 88 82.32 88 83 88 C83.33451172 86.79923828 83.33451172 86.79923828 83.67578125 85.57421875 C85.37058383 80.99975161 87.72149304 77.00994166 90.1875 72.8125 C91.277588 70.93188506 92.36605094 69.05032748 93.453125 67.16796875 C94.02998047 66.16942871 94.60683594 65.17088867 95.20117188 64.14208984 C98.33546748 58.66728196 101.38378287 53.14502934 104.4375 47.625 C109.2834919 38.87933384 114.14804302 30.14490785 119.0625 21.4375 C119.57417725 20.52887207 120.08585449 19.62024414 120.61303711 18.68408203 C130.10881744 1.89118256 130.10881744 1.89118256 132 0 C142.56 0 153.12 0 164 0 C164 52.8 164 105.6 164 160 C154.1 160 144.2 160 134 160 C133.67 122.71 133.34 85.42 133 47 C128.05 55.91 123.1 64.82 118 74 C111.875 84.75 111.875 84.75 109.0078125 89.74609375 C103.62217637 99.13573904 98.31862909 108.57230102 93 118 C85.74 118 78.48 118 71 118 C70.12859375 116.43894531 69.2571875 114.87789062 68.359375 113.26953125 C62.12050958 102.10431726 55.85534047 90.95644423 49.49584961 79.859375 C45.57939648 73.02281127 41.69016464 66.17113601 37.8125 59.3125 C37.24716553 58.31331543 36.68183105 57.31413086 36.09936523 56.28466797 C35.31734741 54.90045654 35.31734741 54.90045654 34.51953125 53.48828125 C34.05651611 52.66884033 33.59350098 51.84939941 33.11645508 51.00512695 C32.38188835 49.68586245 31.6752847 48.35056939 31 47 C30.67 84.29 30.34 121.58 30 160 C20.1 160 10.2 160 0 160 C0 107.2 0 54.4 0 0 Z " fill="#27316E" transform="translate(472,1055)"/>
<path d="M0 0 C93.50958904 0 93.50958904 0 109 11 C110.36125 11.8971875 110.36125 11.8971875 111.75 12.8125 C122.57498074 23.33678683 126.13029292 38.02414438 126.375 52.625 C126.36355445 64.80178985 123.9946665 76.8155833 117 87 C116.443125 87.86625 115.88625 88.7325 115.3125 89.625 C102.07511754 103.22014956 84.72070455 105.65999487 66.64498901 106.05093384 C60.78392798 106.11956142 54.92377933 106.09138589 49.0625 106.0625 C43.101875 106.041875 37.14125 106.02125 31 106 C31 123.82 31 141.64 31 160 C20.77 160 10.54 160 0 160 C0 107.2 0 54.4 0 0 Z M31 24 C31 43.14 31 62.28 31 82 C37.55875 82.061875 44.1175 82.12375 50.875 82.1875 C53.94917236 82.22846802 53.94917236 82.22846802 57.08544922 82.27026367 C58.74185602 82.27903986 60.39826938 82.2866811 62.0546875 82.29296875 C62.8887915 82.30831665 63.72289551 82.32366455 64.58227539 82.33947754 C73.6609949 82.34343743 81.65358064 80.3865785 88.30859375 74.02734375 C94.23310605 66.92613848 95.62650049 58.01830973 95 49 C94.00519929 40.88526851 90.9367405 35.07333308 85.3125 29.1875 C78.14413444 24.45367369 70.47877023 23.55202422 62.0546875 23.70703125 C60.86081421 23.71156311 60.86081421 23.71156311 59.64282227 23.71618652 C56.72007954 23.73167218 53.79752425 23.77355292 50.875 23.8125 C44.31625 23.874375 37.7575 23.93625 31 24 Z " fill="#27316E" transform="translate(1170,1055)"/>
<path d="M0 0 C9.9 0 19.8 0 30 0 C30 16.5 30 33 30 50 C34.29 48.68 38.58 47.36 43 46 C61.20242611 42.47694979 82.66290634 44.73349614 98.75 54.125 C108.29563501 60.58517723 114.14278207 69.49691175 116.58932495 80.69816589 C118.21633105 90.35102379 118.25717575 99.7974988 118.1953125 109.55078125 C118.19157313 111.30339902 118.18873053 113.0560189 118.18673706 114.80863953 C118.17917328 119.37716649 118.15958892 123.94556225 118.1373291 128.51403809 C118.11671256 133.19358547 118.10770185 137.87315447 118.09765625 142.55273438 C118.07633469 151.70188925 118.04121353 160.85091309 118 170 C108.1 170 98.2 170 88 170 C87.970271 166.57971436 87.970271 166.57971436 87.93994141 163.09033203 C87.87280523 155.52661249 87.79517007 147.96302635 87.71247292 140.39946175 C87.66268963 135.81711942 87.6163591 131.23479815 87.578125 126.65234375 C87.54104385 122.22371031 87.49462435 117.79526124 87.44193649 113.36678696 C87.42351309 111.68368667 87.40836149 110.00054704 87.39665604 108.31738663 C87.65034359 91.97598331 87.65034359 91.97598331 82 77 C73.37675208 68.7516759 63.85199336 68.63414732 52.48828125 68.76953125 C46.13372569 68.98403678 40.13901508 70.37916565 34 72 C32.02 72.495 32.02 72.495 30 73 C30 105.01 30 137.02 30 170 C20.1 170 10.2 170 0 170 C0 113.9 0 57.8 0 0 Z " fill="#27316E" transform="translate(906,1044)"/>
<path d="M0 0 C11.20609681 8.58310526 19.68261671 21.33794602 22.0859375 35.41015625 C22.71452847 40.90894148 22.75989678 46.42780354 22.80029297 51.95703125 C22.81576172 53.72651123 22.81576172 53.72651123 22.83154297 55.53173828 C22.65311284 73.27314528 16.99754295 87.33193224 4.36279297 99.83203125 C3.83298828 100.39535156 3.30318359 100.95867187 2.75732422 101.5390625 C-9.40493752 113.38866969 -28.25259678 116.41196533 -44.44970703 116.26953125 C-45.67512207 116.26123291 -46.90053711 116.25293457 -48.16308594 116.24438477 C-66.26008161 115.90783574 -83.16141052 111.11079606 -96.45751953 98.20703125 C-111.41325664 81.91117433 -113.43486593 63.88844815 -112.78076172 42.69482422 C-112.04899329 28.10176874 -105.58018641 14.74287671 -95.43408203 4.3046875 C-70.80080567 -17.47305543 -26.77381526 -19.10019866 0 0 Z M-73.63720703 22.83203125 C-82.06072703 36.12221247 -83.5790076 50.29820377 -80.98876953 65.68359375 C-78.19031329 75.70541566 -73.15139545 84.22933072 -64.07861328 89.6484375 C-53.97797577 94.54522656 -43.20883314 95.43719275 -32.44970703 92.26953125 C-22.47466357 88.52726004 -16.0660265 82.52175143 -11.63720703 72.83203125 C-8.76849989 66.03681886 -8.1232265 59.8574133 -8.19970703 52.51953125 C-8.20728027 51.5049585 -8.21485352 50.49038574 -8.22265625 49.44506836 C-8.46945153 38.2194861 -10.87942782 29.18944557 -18.63720703 20.83203125 C-19.15025391 20.27773437 -19.66330078 19.7234375 -20.19189453 19.15234375 C-27.82541629 11.81101421 -37.13877548 10.21779305 -47.359375 10.36376953 C-58.05712468 10.82057038 -66.76030969 14.39102756 -73.63720703 22.83203125 Z " fill="#27316E" transform="translate(1508.63720703125,1101.16796875)"/>
<path d="M0 0 C8.13436099 7.29595097 12.28824598 18.63269902 12.89073372 29.35940742 C13.06281391 35.01328949 13.01075759 40.66860347 12.9765625 46.32421875 C12.97282628 48.14838505 12.96998219 49.97255338 12.96798706 51.79672241 C12.96039855 56.56750151 12.94079181 61.33815629 12.9185791 66.10888672 C12.89801696 70.98924071 12.88896329 75.86961505 12.87890625 80.75 C12.85754085 90.30343964 12.82346352 99.85678755 12.78125 109.41015625 C10.37531974 110.05591323 7.96911612 110.70061945 5.56274414 111.34472656 C4.88505226 111.52673615 4.20736038 111.70874573 3.50913239 111.89627075 C-11.47105976 115.90222705 -26.08558265 116.71138634 -41.53125 116.78515625 C-42.34199982 116.79301147 -43.15274963 116.8008667 -43.98806763 116.80895996 C-60.79569888 116.93557112 -77.94711265 115.68136649 -91.5078125 104.52734375 C-93.35421448 102.58665742 -94.79539713 100.6766683 -96.21875 98.41015625 C-96.86263672 97.40662109 -96.86263672 97.40662109 -97.51953125 96.3828125 C-102.13121581 87.36546366 -101.54284423 74.89743449 -99.55859375 65.17578125 C-96.60267008 56.93502436 -91.24233871 51.20448423 -83.59375 47.09765625 C-67.98870297 39.92829632 -51.32101109 40.25994237 -34.53125 40.34765625 C-32.84700654 40.35268287 -31.16276163 40.35724372 -29.47851562 40.36132812 C-25.39189047 40.37223798 -21.30533672 40.38943804 -17.21875 40.41015625 C-17.47582735 38.03294686 -17.74892068 35.65939019 -18.03125 33.28515625 C-18.13663086 32.28742188 -18.13663086 32.28742188 -18.24414062 31.26953125 C-18.93413664 25.6391638 -20.3570161 21.27189015 -24.40625 17.22265625 C-32.04861173 12.29757869 -38.89541122 11.92524823 -47.78125 12.03515625 C-49.51290405 12.04712036 -49.51290405 12.04712036 -51.27954102 12.05932617 C-59.93509442 12.203312 -67.85025722 13.10232346 -76.21875 15.41015625 C-77.28738281 15.69632813 -78.35601563 15.9825 -79.45703125 16.27734375 C-81.32543322 16.78624701 -83.18976786 17.31068426 -85.046875 17.859375 C-87.21875 18.41015625 -87.21875 18.41015625 -90.21875 18.41015625 C-90.92079038 15.32994848 -91.60280208 12.24563889 -92.28125 9.16015625 C-92.48041016 8.28746094 -92.67957031 7.41476562 -92.88476562 6.515625 C-93.06845703 5.67128906 -93.25214844 4.82695313 -93.44140625 3.95703125 C-93.70062866 2.79445801 -93.70062866 2.79445801 -93.96508789 1.60839844 C-94.23626125 -0.74159666 -93.93429459 -2.35181643 -93.21875 -4.58984375 C-90.34636966 -5.39215041 -87.47134904 -6.18164401 -84.59375 -6.96484375 C-83.80484375 -7.1865625 -83.0159375 -7.40828125 -82.203125 -7.63671875 C-56.17806337 -14.65935443 -22.86468815 -16.38367619 0 0 Z M-65.28125 64.66015625 C-69.29041133 70.35057878 -70.92941977 75.3478145 -69.78125 82.30859375 C-68.43851782 87.32519036 -65.70833167 90.29777359 -61.53125 93.16015625 C-54.59663021 97.09567953 -47.91796303 97.59078326 -40.03125 97.72265625 C-39.37326416 97.74046143 -38.71527832 97.7582666 -38.03735352 97.77661133 C-30.61783766 97.76511917 -24.88402522 96.05271523 -17.21875 94.41015625 C-17.21875 82.53015625 -17.21875 70.65015625 -17.21875 58.41015625 C-22.41625 58.32765625 -27.61375 58.24515625 -32.96875 58.16015625 C-35.38912598 58.10553223 -35.38912598 58.10553223 -37.85839844 58.04980469 C-47.76667465 57.97424342 -56.99545377 58.57263249 -65.28125 64.66015625 Z " fill="#27316E" transform="translate(760.21875,1100.58984375)"/>
<path d="M0 0 C5.38332569 1.59505946 10.20132488 3.96797684 15.1875 6.5 C16.50971558 7.1664856 16.50971558 7.1664856 17.85864258 7.84643555 C25.24845958 11.58586896 32.58057395 15.43073875 39.8984375 19.30859375 C44.62257007 21.80878165 49.36834568 24.2659709 54.1159668 26.72119141 C63.99542935 31.83258523 73.80505552 37.04667539 83.55004883 42.40966797 C90.80853248 46.38800674 98.14232112 50.20877028 105.5 54 C116.43643965 59.64124042 127.28046062 65.4233563 138.04980469 71.37695312 C140.74356603 72.85892312 143.44424653 74.32749764 146.14801025 75.79112244 C148.55488015 77.09613437 150.95721282 78.4093623 153.35888672 79.72390747 C155.05757059 80.65071047 156.76111571 81.56858658 158.46484375 82.48608398 C175.41337571 91.80188454 187.5329594 103.04499431 197 120 C197.710354 121.26336182 197.710354 121.26336182 198.43505859 122.55224609 C199.99878723 125.35707626 201.53478804 128.17540768 203.0625 131 C203.81539307 132.36282104 203.81539307 132.36282104 204.58349609 133.75317383 C205.04191895 134.61837646 205.5003418 135.4835791 205.97265625 136.375 C206.38781494 137.14585937 206.80297363 137.91671875 207.23071289 138.7109375 C208.17079706 141.50821747 207.79447877 143.19719527 207 146 C203.76163909 145.38276082 201.67402253 144.26874086 199.015625 142.33984375 C197.85740234 141.5190332 197.85740234 141.5190332 196.67578125 140.68164062 C195.10244895 139.55041217 193.53195117 138.41522688 191.96484375 137.27539062 C178.38753238 127.68683112 162.70857118 121.55931183 147.5 115.0625 C145.56082486 114.2303622 143.62178114 113.3979181 141.68286133 112.56518555 C136.74125359 110.44460591 131.79691084 108.33048809 126.85162354 106.21850586 C124.1300136 105.05555514 121.40930274 103.89053204 118.68896484 102.72460938 C113.69044514 100.58261635 108.68988819 98.4454428 103.6875 96.3125 C102.4709523 95.79367752 102.4709523 95.79367752 101.22982788 95.26437378 C92.04220993 91.35135534 82.83160052 87.50510791 73.5703125 83.76953125 C43.68190749 71.70694154 43.68190749 71.70694154 32.625 65.9375 C31.45964722 65.33059326 31.45964722 65.33059326 30.27075195 64.71142578 C16.01016431 56.927087 6.89688105 46.45749926 2.02734375 30.890625 C-0.55922784 20.64058317 -0.28523079 10.50071857 0 0 Z " fill="#FF2300" transform="translate(802,750)"/>
<path d="M0 0 C-0.48827713 7.47834967 -1.33405548 14.68925318 -3 22 C-6.96713631 23.58493339 -9.38205134 22.30151944 -13.1875 20.6875 C-25.88864825 15.32752329 -42.79979 12.79811288 -56.0625 17.6875 C-59.65419926 19.5315388 -62.1547386 21.3094772 -64 25 C-64.64837219 27.8482064 -64.72138932 30.16061162 -64 33 C-58.2234459 40.26195372 -47.70669864 41.40843209 -39.0859375 43.3359375 C-9.37757886 50.01333912 -9.37757886 50.01333912 0.44921875 61.49609375 C4.42422059 67.91416977 5.53249389 73.89310021 5.4375 81.375 C5.42992676 82.21063477 5.42235352 83.04626953 5.41455078 83.90722656 C5.17857171 92.75041298 2.96830882 99.86960938 -3.1875 106.41015625 C-18.87444053 120.17003728 -41.26308036 121.05086304 -61.1015625 119.87548828 C-72.84646656 119.01496511 -88.05485508 117.63009661 -98 111 C-96.92373883 103.59211729 -95.72864339 96.28499714 -94 89 C-92.7625 89.4125 -91.525 89.825 -90.25 90.25 C-78.32902565 93.7640813 -66.2773531 96.36132013 -53.8125 96.375 C-53.05976807 96.37653076 -52.30703613 96.37806152 -51.53149414 96.37963867 C-44.66010138 96.24311083 -37.43043907 95.45562966 -31.5625 91.625 C-30.92441406 91.22539063 -30.28632812 90.82578125 -29.62890625 90.4140625 C-27.1682378 88.27794265 -26.09565372 86.25576159 -25.84765625 83 C-25.91855469 82.34 -25.98945312 81.68 -26.0625 81 C-26.11535156 80.34 -26.16820312 79.68 -26.22265625 79 C-27.41817737 75.92408636 -29.27328231 74.80177953 -32 73 C-35.29632975 71.61594185 -35.29632975 71.61594185 -39 70.5625 C-39.68352539 70.35496094 -40.36705078 70.14742187 -41.07128906 69.93359375 C-46.90834727 68.20871318 -52.81834703 66.85448864 -58.75 65.5 C-72.17794991 62.37903896 -84.13222273 58.74604997 -92.47265625 46.91015625 C-97.21941959 37.77391283 -96.92403992 26.40773189 -94.0703125 16.75390625 C-90.36518289 7.2206348 -83.99705249 1.37100659 -75 -3.1875 C-51.38936856 -12.75180663 -23.06764924 -9.24899407 0 0 Z " fill="#27316E" transform="translate(1140,1097)"/>
<path d="M0 0 C8.91 0 17.82 0 27 0 C27 12.87 27 25.74 27 39 C40.86 39 54.72 39 69 39 C69 46.59 69 54.18 69 62 C55.14 62 41.28 62 27 62 C27.06188704 73.1555204 27.06188704 73.1555204 27.16015625 84.31054688 C27.20834507 88.86613231 27.25244406 93.42147981 27.27099609 97.97729492 C27.28623823 101.6539842 27.32081492 105.33004732 27.36830902 109.00645638 C27.38304561 110.40287875 27.39103655 111.79939056 27.39188385 113.19589043 C27.40142278 121.04067646 27.44002662 128.31499693 32 135 C39.36306561 141.0106658 47.91241682 140.88482629 57 140 C60.87803563 139.0384659 64.37667331 137.66296736 68 136 C69.66409336 135.32693574 71.33008047 134.65847626 73 134 C75.00236413 141.32940833 76.51298949 148.40935336 77 156 C59.66607674 164.94996446 40.20777357 166.87003209 21.50390625 161.26171875 C11.33674145 157.60063265 4.64360031 150.83262342 -0.140625 141.28515625 C-3.39755629 132.62467985 -3.26077339 124.24888469 -3.1953125 115.125 C-3.19157672 113.58943873 -3.18873242 112.05387506 -3.18673706 110.51831055 C-3.17914503 106.50044025 -3.15953525 102.48271734 -3.1373291 98.46490479 C-3.11677459 94.35552971 -3.10771491 90.24613055 -3.09765625 86.13671875 C-3.07628461 78.09107107 -3.04113925 70.04557091 -3 62 C-10.59 62 -18.18 62 -26 62 C-26 55.07 -26 48.14 -26 41 C-21.6996875 40.505 -21.6996875 40.505 -17.3125 40 C-15.97119019 39.84337891 -15.97119019 39.84337891 -14.6027832 39.68359375 C-13.88437256 39.60238281 -13.16596191 39.52117187 -12.42578125 39.4375 C-11.69786377 39.35371094 -10.96994629 39.26992187 -10.2199707 39.18359375 C-7.80439056 38.98382291 -5.42273818 38.9702046 -3 39 C-3.02610352 38.18039795 -3.02610352 38.18039795 -3.05273438 37.34423828 C-3.1877229 29.44901651 -2.36333088 21.71497776 -1.5 13.875 C-1.35498671 12.52348913 -1.21045214 11.17192681 -1.06640625 9.8203125 C-0.71562661 6.5463692 -0.35846326 3.27311093 0 0 Z " fill="#27316E" transform="translate(812,1053)"/>
<path d="M0 0 C36.13015389 13.08239922 71.57474432 28.13692545 107 43 C107.64298035 43.26961548 108.28596069 43.53923096 108.94842529 43.8170166 C138.32725948 56.15115399 164.48991674 69.16550471 178.15234375 99.78515625 C179 102 179 102 179 104 C174.94488448 102.56973882 171.38166815 100.55631565 167.67163086 98.42138672 C140.90849772 83.10787702 111.65242902 74.10658283 81.9375 66.5 C17.09236343 49.892837 17.09236343 49.892837 4.6875 31.375 C-0.28458147 22.44693 -1.95991645 12.13450251 -1 2 C-0.67 1.34 -0.34 0.68 0 0 Z " fill="#3A5899" transform="translate(852,840)"/>
<path d="M0 0 C1.58868896 0.00012085 1.58868896 0.00012085 3.20947266 0.00024414 C21.19999964 0.13124982 21.19999964 0.13124982 27.3125 3.1875 C26.6747098 10.71342433 25.11360167 17.85848882 23.3125 25.1875 C22.013125 25.0225 20.71375 24.8575 19.375 24.6875 C14.53721887 24.21334247 9.73218351 24.04329523 4.875 24 C4.19638916 23.98710938 3.51777832 23.97421875 2.81860352 23.9609375 C-3.39234201 23.94918686 -8.30499278 25.02704414 -14.6875 26.1875 C-14.6875 59.1875 -14.6875 92.1875 -14.6875 126.1875 C-24.5875 126.1875 -34.4875 126.1875 -44.6875 126.1875 C-44.6875 87.2475 -44.6875 48.3075 -44.6875 8.1875 C-33.40634347 3.67503739 -33.40634347 3.67503739 -27.0625 2.5 C-25.24878906 2.15388672 -25.24878906 2.15388672 -23.3984375 1.80078125 C-15.51457873 0.49786985 -7.98717238 -0.00564686 0 0 Z " fill="#27316E" transform="translate(1360.6875,1088.8125)"/>
<path d="M0 0 C10.49106794 -0.62050066 18.73023327 0.89778936 28.66015625 4.28515625 C30.04237052 4.73945384 31.42519089 5.19191083 32.80856323 5.64266968 C36.47837189 6.84409047 40.13933553 8.07050021 43.79887009 9.30280685 C47.60361024 10.5797095 51.41556887 11.83469506 55.22680664 13.09204102 C61.31440295 15.1031499 67.39734529 17.1277637 73.47753906 19.16113281 C80.97909786 21.66854276 88.49759769 24.12108037 96.0234375 26.5546875 C99.05789448 27.54207046 102.09176061 28.53123524 105.12521362 29.521698 C106.97220131 30.12315702 108.82025769 30.72134603 110.66946411 31.31594849 C129.2665822 37.31170773 146.03572518 44.82747685 157 62 C157 62.66 157 63.32 157 64 C148.53798291 63.37259701 140.51104954 61.27342139 132.3203125 59.17578125 C130.78375891 58.78739001 129.24704262 58.39964195 127.71017456 58.01249695 C123.66529308 56.99228746 119.62207187 55.96566401 115.5793457 54.93695068 C108.41155223 53.1132738 101.24204816 51.29639391 94.0703125 49.48828125 C93.29483189 49.29274155 92.51935127 49.09720184 91.72037125 48.89573669 C72.19779098 43.9828442 52.57683655 39.58989776 32.80671692 35.78439331 C23.24560651 33.92476247 14.36179184 30.68772319 8 23 C3.71034989 15.7142528 1.20266603 8.33396743 0 0 Z " fill="#7851A9" transform="translate(891,912)"/>
</svg>
