<?xml version="1.0" encoding="UTF-8"?>
<svg version="1.1" xmlns="http://www.w3.org/2000/svg" width="88" height="80">
<path d="M0 0 C29.04 0 58.08 0 88 0 C88 26.4 88 52.8 88 80 C58.96 80 29.92 80 0 80 C0 53.6 0 27.2 0 0 Z " fill="#FEFEFE" transform="translate(0,0)"/>
<path d="M0 0 C5.82306198 2.11747708 11.17191614 5.20421996 16.62231445 8.11889648 C22.06653382 11.02039172 22.06653382 11.02039172 27.6328125 13.67578125 C34.61348553 16.84475686 39.70542667 20.52872511 44 27 C44.70703125 29.2734375 44.70703125 29.2734375 45 31 C35.55964684 27.25781153 26.28081457 23.11857188 17 19 C16.21028809 18.65179199 15.42057617 18.30358398 14.60693359 17.94482422 C12.64330501 17.06874378 10.69483337 16.16689186 8.75 15.25 C7.16445313 14.51523437 7.16445313 14.51523437 5.546875 13.765625 C2.37083792 11.56383243 1.37075485 9.57790248 0 6 C-0.1875 2.625 -0.1875 2.625 0 0 Z " fill="#FF2A09" transform="translate(19,19)"/>
<path d="M0 0 C7.17575619 1.98610353 13.97883676 4.49051348 20.8125 7.4375 C21.72708984 7.81970703 22.64167969 8.20191406 23.58398438 8.59570312 C30.93483854 11.74454174 35.71261101 14.38709918 39 22 C38.31035156 21.72027344 37.62070313 21.44054687 36.91015625 21.15234375 C29.23297281 18.11238521 21.56126072 15.26914725 13.5 13.4375 C7.43182753 12.0054113 3.55761817 10.33642725 0 5 C-0.125 2.3125 -0.125 2.3125 0 0 Z " fill="#435F9D" transform="translate(30,39)"/>
<path d="M0 0 C6.16769867 0.63715895 11.75643146 2.35220084 17.625 4.3125 C18.553125 4.60833984 19.48125 4.90417969 20.4375 5.20898438 C25.28441629 6.8165218 29.34521439 8.26039869 33 12 C33 12.66 33 13.32 33 14 C9.49171881 9.99558336 9.49171881 9.99558336 2 6 C0 3 0 3 0 0 Z " fill="#805CAE" transform="translate(39,54)"/>
<path d="M0 0 C7.39258257 1.65113519 14.20639425 3.62035269 21 7 C21 7.99 21 8.98 21 10 C13.21878058 7.97810834 5.60227292 5.61369593 -2 3 C-1.34 2.67 -0.68 2.34 0 2 C0 1.34 0 0.68 0 0 Z " fill="#EFEEF6" transform="translate(45,52)"/>
</svg>
